<svg xmlns="http://www.w3.org/2000/svg" viewBox="0 0 233 233" fill="#ffffff">
  <path d="M4.5 116.5c0-61.8 50.2-112 112-112s112 50.2 112 112-50.2 112-112 112c-5.5 0-10.9-.4-16.2-1.2l26.4-10.9c14.2-5.9 21-21.8 15.1-36-5.9-14.2-21.8-21-36-15.1l-37.8 15.6c-8.2-18-26.4-30.5-47.5-30.5-28.7 0-52 23.3-52 52s23.3 52 52 52c21.1 0 39.3-12.5 47.5-30.5l37.8 15.6c14.2 5.9 30.1-.9 36-15.1 5.9-14.2-.9-30.1-15.1-36l-26.4-10.9c5.3-.8 10.7-1.2 16.2-1.2 43.1 0 78-34.9 78-78s-34.9-78-78-78-78 34.9-78 78v.5l32.5 13.4c-.2-1.6-.3-3.2-.3-4.9 0-19.9 16.1-36 36-36s36 16.1 36 36-16.1 36-36 36c-1.7 0-3.3-.1-4.9-.3L4.5 116.5z"/>
  <circle cx="164.5" cy="68.5" r="27"/>
</svg>
